# xmcd
#
# Track frame offsets: 
#        150
#        16885
#        31347
#        45396
#        57487
#        72273
#        91542
#        105772
#        125907
#        145561
#        168877
#        190084
#        205664
#        224258
#        243197
#        267522
#        278929
#        301997
#        320672
#        338590
#
# Disc length: 4744 seconds
#
# Revision: 0
# Processed by: cddbd v1.5.2PL0 Copyright (c) Steve Scherf et al.
# Submitted via: ExactAudioCopy v1.0b3
#
DISCID=11128614
DTITLE=Różni wykonawcy - Las Woda Blues 2017
DYEAR=2018
DGENRE=Blues
TTITLE0=01 - Hymn -Las Woda Blues
TTITLE1=02 - Starzy Przyjaciele - Chciałem spotkać Blondyneczkę
TTITLE2=03 - Dirty Doctors - Waitin For The Bus
TTITLE3=04 - 4 Acoustic - Zastanów się
TTITLE4=05 - Arek Zawliński - Ku Pokrzepieniu
TTITLE5=06 - Blues Menu - Deprecha
TTITLE6=07 - Makaron and Rajca - Za moim oknem widok jest fest
TTITLE7=08 - Back to the Roots - Mystery Train
TTITLE8=09 - Manfredi and Johson - Bright and Brave 
TTITLE9=10 - Limit Blues - Dla kogoś feat.Jerzy Styczyński
TTITLE10=11 - Blues Point -  Dwa Światy
TTITLE11=12 - Makar and Children of Corn - 7 And You Run
TTITLE12=13 - Cheap Tobacco - Gdybyś wiedział
TTITLE13=14 - Jan Gałach Band - Aurora
TTITLE14=15 - JJ Band - Searchin' For The Blues
TTITLE15=16 - Demain Band -  I'm Leavin This Town
TTITLE16=17 - Bar Rock - Nuda
TTITLE17=18 - George Dyer Band - Wrong Woman Blues
TTITLE18=19 - Pola Chobot and Adam Baran - Body and Soul
TTITLE19=20 - The Stars`i - Dolina
EXTD=
EXTT0=
EXTT1=
EXTT2=
EXTT3=
EXTT4=
EXTT5=
EXTT6=
EXTT7=
EXTT8=
EXTT9=
EXTT10=
EXTT11=
EXTT12=
EXTT13=
EXTT14=
EXTT15=
EXTT16=
EXTT17=
EXTT18=
EXTT19=
PLAYORDER=
